<svg xmlns="http://www.w3.org/2000/svg" viewBox="0 0 147.33 43"><defs><style>.cls-1{fill:#231f20;}</style></defs><g id="Layer_2" data-name="Layer 2"><g id="Layer_1-2" data-name="Layer 1"><path class="cls-1" d="M7.82,43,0,36.93c.31-.41.47-.61.79-1L8.53,42.1C8.25,42.45,8.1,42.63,7.82,43Z"/><path class="cls-1" d="M5.45,33.76l-.32.1a1.74,1.74,0,0,0,0-.39,2.14,2.14,0,0,0-.16-.39,1.36,1.36,0,0,0-.23-.34.88.88,0,0,1-.45.23.49.49,0,0,1-.41-.1.47.47,0,0,1-.15-.44A.92.92,0,0,1,4,31.89a1,1,0,0,1,.53-.34.6.6,0,0,1,.54.17,1.56,1.56,0,0,1,.43.87A2.88,2.88,0,0,1,5.45,33.76Z"/><path class="cls-1" d="M14.28,35.58l-4.39-4.3.8-.82.59.6a3.14,3.14,0,0,1,.27-1.35,4,4,0,0,1,.89-1.22,3.75,3.75,0,0,1,1.49-.9,1.94,1.94,0,0,1,1.37,0,3.26,3.26,0,0,1,.25-1.47A3.48,3.48,0,0,1,16.6,24.8a3.66,3.66,0,0,1,1.32-.74,2.24,2.24,0,0,1,1.28,0,2.05,2.05,0,0,1,1.06.76L22.75,28l-.82.65-2.37-3A1.69,1.69,0,0,0,18.3,25a2.1,2.1,0,0,0-1.46.57,2.67,2.67,0,0,0-.74.92,2.19,2.19,0,0,0-.25,1,1,1,0,0,0,.25.74l2.71,3.08L18,32l-2.6-2.88a1.57,1.57,0,0,0-1.26-.56,2.17,2.17,0,0,0-1.4.66,3.26,3.26,0,0,0-.71,1,2.26,2.26,0,0,0-.22,1,1,1,0,0,0,.26.72L15,34.82C14.72,35.12,14.57,35.27,14.28,35.58Z"/><path class="cls-1" d="M31.11,22.43a4.12,4.12,0,0,1-1.77.61,3.57,3.57,0,0,1-1.72-.27,3.13,3.13,0,0,1-1.34-1.14A2.93,2.93,0,0,1,25.77,20a3.39,3.39,0,0,1,.51-1.71,4.48,4.48,0,0,1,3.28-2,2.9,2.9,0,0,1,1.65.3l-.63-1.11,1-.53,2.93,5.4-.89.5L33,19.64a3.37,3.37,0,0,1-.55,1.57A3.78,3.78,0,0,1,31.11,22.43Zm-.17-.78a3.16,3.16,0,0,0,1.07-1,2.43,2.43,0,0,0,.42-1.26,2.29,2.29,0,0,0-.31-1.31,2.37,2.37,0,0,0-1-.95,2.47,2.47,0,0,0-1.33-.26,3.31,3.31,0,0,0-1.47.5,3.24,3.24,0,0,0-1.13,1.07,2.43,2.43,0,0,0-.41,1.3,2.23,2.23,0,0,0,.39,1.3,2.4,2.4,0,0,0,1,.89,2.67,2.67,0,0,0,1.32.21A3.25,3.25,0,0,0,30.94,21.65Z"/><path class="cls-1" d="M42.84,16.32c-2.21-1.75-3.35-2.6-5.72-4.22l1.14-.51c1.8,1.34,2.68,2,4.39,3.45.11-2.15.19-3.23.39-5.39l.68-.25c1.57,1.5,2.34,2.27,3.81,3.84.37-2.18.59-3.28,1.08-5.47l1.18-.34c-.73,2.76-1,4.14-1.56,6.91l-.63.21c-1.45-1.53-2.2-2.28-3.74-3.75-.21,2.12-.29,3.17-.41,5.28Z"/><path class="cls-1" d="M56.72,12.2a4.56,4.56,0,0,1-2,0,3.51,3.51,0,0,1-1.62-.78A2.91,2.91,0,0,1,52.17,10a2.82,2.82,0,0,1,0-1.32,3.22,3.22,0,0,1,.54-1.23,4.29,4.29,0,0,1,1-1,4.76,4.76,0,0,1,3.47-.61,3.38,3.38,0,0,1,1.55.83,2.9,2.9,0,0,1,.81,1.5c0,.05,0,.08,0,.11a.47.47,0,0,1,0,.12c-2.56.45-3.84.73-6.38,1.38a2.23,2.23,0,0,0,.69,1.14,2.6,2.6,0,0,0,1.21.59,3.4,3.4,0,0,0,1.52,0A3.76,3.76,0,0,0,58,10.91a3,3,0,0,0,.89-1l.8.2a3.42,3.42,0,0,1-1.14,1.35A4.7,4.7,0,0,1,56.72,12.2ZM53.07,9.12c2.14-.54,3.22-.78,5.38-1.19A2.09,2.09,0,0,0,57.78,7a2.54,2.54,0,0,0-1.11-.48,3,3,0,0,0-1.34,0,3.21,3.21,0,0,0-1.25.54,2.49,2.49,0,0,0-.79.9A2,2,0,0,0,53.07,9.12Z"/><path class="cls-1" d="M66.5,10.64a3.85,3.85,0,0,1-1.73-.21,3.25,3.25,0,0,1-1.34-.93l.17,1.29-1,.14C62,6.84,61.7,4.8,61.1.72L62.2.56c.3,2.16.45,3.25.74,5.41a2.93,2.93,0,0,1,1.12-1.23,3.76,3.76,0,0,1,1.75-.59,4,4,0,0,1,2,.25,3.25,3.25,0,0,1,1.4,1.06,3,3,0,0,1,.58,1.64,3.07,3.07,0,0,1-.36,1.71,3.34,3.34,0,0,1-1.17,1.25A3.91,3.91,0,0,1,66.5,10.64Zm-.32-.73a3.09,3.09,0,0,0,1.36-.46,2.48,2.48,0,0,0,.89-1,2.42,2.42,0,0,0,.26-1.31,2.33,2.33,0,0,0-1.54-2.07,3.05,3.05,0,0,0-1.5-.18,3.24,3.24,0,0,0-1.43.48,2.46,2.46,0,0,0-.89,1,2.41,2.41,0,0,0-.19,1.34A2.37,2.37,0,0,0,63.67,9a2.42,2.42,0,0,0,1.07.76A3.1,3.1,0,0,0,66.18,9.91Z"/><path class="cls-1" d="M79.23,10.3a3.79,3.79,0,0,1-1.76-.49,3.24,3.24,0,0,1-1.23-1.18,3.11,3.11,0,0,1-.46-1.69,3,3,0,0,1,.5-1.67,3.19,3.19,0,0,1,1.34-1.14,3.94,3.94,0,0,1,1.93-.35,4,4,0,0,1,1.79.49,3.08,3.08,0,0,1,1.18,1.17c.18-2.17.27-3.26.44-5.44l1.12.1c-.39,4.11-.58,6.17-1,10.28l-1-.09L82.23,9a3.23,3.23,0,0,1-1.3,1A3.71,3.71,0,0,1,79.23,10.3Zm.27-.75a3,3,0,0,0,1.42-.24,2.59,2.59,0,0,0,1-.81,2.38,2.38,0,0,0,.46-1.26,2.32,2.32,0,0,0-.25-1.32,2.41,2.41,0,0,0-.94-1,3.27,3.27,0,0,0-1.46-.41,3.13,3.13,0,0,0-1.49.26,2.43,2.43,0,0,0-1,.86A2.34,2.34,0,0,0,76.85,7a2.46,2.46,0,0,0,.32,1.3,2.52,2.52,0,0,0,1,.91A3.08,3.08,0,0,0,79.5,9.55Z"/><path class="cls-1" d="M89.43,11.4a4.84,4.84,0,0,1-1.88-.73,3.5,3.5,0,0,1-1.19-1.33,2.86,2.86,0,0,1-.29-1.71,2.73,2.73,0,0,1,.45-1.24,3.28,3.28,0,0,1,1-.93,4,4,0,0,1,1.35-.52,4.73,4.73,0,0,1,1.55,0,4.59,4.59,0,0,1,1.88.75A3.13,3.13,0,0,1,93.38,7a2.77,2.77,0,0,1,.19,1.69,1,1,0,0,1,0,.12l0,.1c-2.56-.54-3.84-.76-6.43-1.11a2.23,2.23,0,0,0,.21,1.31,2.53,2.53,0,0,0,.89,1,3.67,3.67,0,0,0,1.42.55,3.8,3.8,0,0,0,1.47,0A3,3,0,0,0,92.27,10l.66.49a3.45,3.45,0,0,1-1.56.82A4.84,4.84,0,0,1,89.43,11.4ZM87.22,7.18c2.18.29,3.26.47,5.42.9A2,2,0,0,0,92.36,7a2.55,2.55,0,0,0-.84-.86,3.2,3.2,0,0,0-1.25-.48,3.25,3.25,0,0,0-1.36,0,2.51,2.51,0,0,0-1.08.54A2,2,0,0,0,87.22,7.18Z"/><path class="cls-1" d="M97.61,13c-.67-2.73-1.06-4.09-1.93-6.81l1.22.29c.61,2.16.88,3.24,1.36,5.4,1.53-1.61,2.32-2.4,3.95-3.94.48.14.73.22,1.2.38-2.15,1.88-3.19,2.86-5.17,4.86Z"/><path class="cls-1" d="M106.5,16.14a4.76,4.76,0,0,1-1.7-1.1,3.67,3.67,0,0,1-.91-1.56,2.93,2.93,0,0,1,.07-1.73,2.84,2.84,0,0,1,.7-1.12,3.19,3.19,0,0,1,1.14-.71,4,4,0,0,1,1.43-.22,4.4,4.4,0,0,1,1.54.31,4.56,4.56,0,0,1,1.7,1.13,3.25,3.25,0,0,1,.84,1.55,2.78,2.78,0,0,1-.17,1.7.37.37,0,0,1,0,.11l-.06.09c-2.41-1.07-3.64-1.56-6.12-2.44a2.22,2.22,0,0,0-.07,1.32,2.58,2.58,0,0,0,.68,1.18,3.51,3.51,0,0,0,1.29.83,3.66,3.66,0,0,0,1.45.28,3.06,3.06,0,0,0,1.33-.35l.56.62a3.54,3.54,0,0,1-1.72.47A4.78,4.78,0,0,1,106.5,16.14Zm-1.31-4.59c2.09.74,3.12,1.15,5.17,2a2,2,0,0,0,0-1.12,2.67,2.67,0,0,0-.66-1,3.22,3.22,0,0,0-1.13-.72,3.37,3.37,0,0,0-1.35-.26,2.68,2.68,0,0,0-1.18.31A1.93,1.93,0,0,0,105.19,11.55Z"/><path class="cls-1" d="M112.15,18.4c1.79-3.72,2.68-5.59,4.48-9.31l1,.5c-1.84,3.7-2.76,5.55-4.59,9.25Z"/><path class="cls-1" d="M118.77,22.17a5,5,0,0,1-1.54-1.37,3.7,3.7,0,0,1-.7-1.7,2.91,2.91,0,0,1,.34-1.75,2.67,2.67,0,0,1,1.29-1.24,3.44,3.44,0,0,1,1.88-.27,5,5,0,0,1,2.08.73,5.21,5.21,0,0,1,1.63,1.48,3.55,3.55,0,0,1,.66,1.8,2.7,2.7,0,0,1-.47,1.72,2.8,2.8,0,0,1-1.39,1.12,3.65,3.65,0,0,1-1.84.19A5,5,0,0,1,118.77,22.17Zm.4-.67a3.53,3.53,0,0,0,1.46.52,2.58,2.58,0,0,0,1.36-.18,2.27,2.27,0,0,0,1-.87,2.19,2.19,0,0,0,.36-1.3,2.73,2.73,0,0,0-.46-1.33,3.65,3.65,0,0,0-1.2-1.1,3.71,3.71,0,0,0-1.54-.54,2.62,2.62,0,0,0-1.38.23,2.13,2.13,0,0,0-1,.93,2.32,2.32,0,0,0-.29,1.32,2.83,2.83,0,0,0,.48,1.28A3.52,3.52,0,0,0,119.17,21.5Z"/><path class="cls-1" d="M122.63,28.19,128,20.62l.91.65-.75,1a3,3,0,0,1,1.69-.09,4.41,4.41,0,0,1,1.74.85,4.48,4.48,0,0,1,1.31,1.6,3.42,3.42,0,0,1,.32,1.78,2.79,2.79,0,0,1-.7,1.61,3,3,0,0,1-1.45,1,3.61,3.61,0,0,1-1.76,0,4.12,4.12,0,0,1-1.73-.85,4,4,0,0,1-1.15-1.38A3.17,3.17,0,0,1,126,25.2l-2.6,3.57Zm5.2-.73a3.27,3.27,0,0,0,1.35.66,2.47,2.47,0,0,0,1.35,0,2.3,2.3,0,0,0,1.11-.75,2.34,2.34,0,0,0,.54-1.25,2.65,2.65,0,0,0-.26-1.36,3.55,3.55,0,0,0-1-1.21,3.44,3.44,0,0,0-1.43-.69,2.53,2.53,0,0,0-1.37.09,2.3,2.3,0,0,0-1.07.82,2.43,2.43,0,0,0-.46,1.27,2.59,2.59,0,0,0,.29,1.32A3.22,3.22,0,0,0,127.83,27.46Z"/><path class="cls-1" d="M135,34.78A5.14,5.14,0,0,1,133.77,33a3.76,3.76,0,0,1-.28-1.84,2.83,2.83,0,0,1,.72-1.59,2.68,2.68,0,0,1,1.09-.74,3.25,3.25,0,0,1,1.36-.17,4.15,4.15,0,0,1,1.45.4,4.77,4.77,0,0,1,1.35,1,5,5,0,0,1,1.2,1.79,3.56,3.56,0,0,1,.22,1.83,2.79,2.79,0,0,1-.8,1.52l-.09.07-.09.07c-1.91-2.08-2.9-3.06-4.93-5a2.16,2.16,0,0,0-.57,1.21,2.75,2.75,0,0,0,.2,1.39,3.9,3.9,0,0,0,.92,1.33,3.84,3.84,0,0,0,1.29.89,3.09,3.09,0,0,0,1.4.26l.3.83a3.79,3.79,0,0,1-1.82-.31A5.36,5.36,0,0,1,135,34.78Zm.48-4.86c1.71,1.59,2.55,2.41,4.17,4.13A1.93,1.93,0,0,0,140,33a2.84,2.84,0,0,0-.24-1.25,3.63,3.63,0,0,0-.81-1.17,3.57,3.57,0,0,0-1.2-.82,2.6,2.6,0,0,0-1.23-.22A1.88,1.88,0,0,0,135.46,29.92Z"/><path class="cls-1" d="M139.53,39.38l4.64-4,.76.89-.69.59a2.27,2.27,0,0,1,1.27.25,3.38,3.38,0,0,1,1.13.94,4.44,4.44,0,0,1,.41.62,4.55,4.55,0,0,1,.28.61l-.88.07a2.86,2.86,0,0,0-.23-.52c-.11-.18-.22-.34-.33-.49a2.69,2.69,0,0,0-.85-.69,2.18,2.18,0,0,0-.95-.27,1.09,1.09,0,0,0-.76.24l-3.09,2.62Z"/></g></g></svg>