<svg xmlns="http://www.w3.org/2000/svg" viewBox="0 0 176.28 45.9"><defs><style>.cls-1{fill:#ebebeb;}</style></defs><g id="Layer_2" data-name="Layer 2"><g id="Layer_1-2" data-name="Layer 1"><path class="cls-1" d="M8.53,45.9,0,37.38c.3-.31.45-.46.76-.75l8.45,8.59Z"/><path class="cls-1" d="M6.12,34.58l-.26,0a1.9,1.9,0,0,0,0-.41,2,2,0,0,0-.14-.41,2.42,2.42,0,0,0-.25-.4.78.78,0,0,1-.45.17.44.44,0,0,1-.37-.14A.43.43,0,0,1,4.5,33a.83.83,0,0,1,.29-.47.89.89,0,0,1,.54-.25.64.64,0,0,1,.51.23,1.72,1.72,0,0,1,.37,1A2.6,2.6,0,0,1,6.12,34.58Z"/><path class="cls-1" d="M16.53,38.61l-4.77-5.77.76-.62.67.83a3.25,3.25,0,0,1,.42-1.58,4.55,4.55,0,0,1,1.22-1.39,4.41,4.41,0,0,1,1.88-.89,2.26,2.26,0,0,1,1.64.27,3.52,3.52,0,0,1,.4-1.74,4.15,4.15,0,0,1,1.41-1.54,4.29,4.29,0,0,1,1.63-.71,2.68,2.68,0,0,1,1.52.12,2.58,2.58,0,0,1,1.21,1.05l2.67,4.12-.75.49-2.58-3.91a2.21,2.21,0,0,0-1.55-1.05,2.62,2.62,0,0,0-1.92.52,3.67,3.67,0,0,0-1.05,1.11,2.72,2.72,0,0,0-.43,1.22,1.45,1.45,0,0,0,.23,1l3,4.12-.73.54-2.86-3.87A2.06,2.06,0,0,0,17,30a2.72,2.72,0,0,0-1.86.65,4,4,0,0,0-1,1.15,3.23,3.23,0,0,0-.41,1.24A1.27,1.27,0,0,0,14,34l3.28,4Z"/><path class="cls-1" d="M37.37,25.12a4.89,4.89,0,0,1-2.18.57,4.23,4.23,0,0,1-2-.5,3.67,3.67,0,0,1-1.5-1.5,3.61,3.61,0,0,1-.49-2.07,4.06,4.06,0,0,1,.75-2,5.32,5.32,0,0,1,4.18-2.14,3.43,3.43,0,0,1,2,.61l-.73-1.55.85-.4,3.15,6.79-.8.37-.74-1.56a4,4,0,0,1-.75,2A4.64,4.64,0,0,1,37.37,25.12Zm-.15-.69a4.13,4.13,0,0,0,1.47-1.21,3.22,3.22,0,0,0,.63-1.6A3.08,3.08,0,0,0,39,19.88a3.05,3.05,0,0,0-1.16-1.34,3.24,3.24,0,0,0-1.7-.47,4.3,4.3,0,0,0-1.93.5,4.37,4.37,0,0,0-1.54,1.28,3.25,3.25,0,0,0-.62,1.66,3,3,0,0,0,.4,1.72,3.2,3.2,0,0,0,1.23,1.27,3.38,3.38,0,0,0,1.69.41A4,4,0,0,0,37.22,24.43Z"/><path class="cls-1" d="M51.32,18.85c-2.52-2.28-3.83-3.39-6.54-5.54l1-.39c2.23,1.85,3.31,2.79,5.41,4.73.23-2.76.38-4.14.73-6.91l.59-.19c1.9,2,2.82,3.09,4.62,5.2.57-2.8.89-4.2,1.61-7l1-.26c-.93,3.31-1.34,5-2.05,8.3l-.55.16c-1.77-2.06-2.68-3.08-4.56-5.08-.36,2.72-.51,4.08-.75,6.79Z"/><path class="cls-1" d="M67.9,14.58a5.42,5.42,0,0,1-2.41,0,4.34,4.34,0,0,1-1.9-1,3.7,3.7,0,0,1-1.05-3.42,3.81,3.81,0,0,1,.69-1.47A4.53,4.53,0,0,1,64.5,7.47a4.92,4.92,0,0,1,1.71-.66,5.15,5.15,0,0,1,2.35.06,4,4,0,0,1,1.84,1,3.56,3.56,0,0,1,1,1.82l0,.13s0,.07,0,.12c-3.21.5-4.81.81-8,1.53a3.05,3.05,0,0,0,.85,1.53,3.41,3.41,0,0,0,1.55.85,4.39,4.39,0,0,0,2,0,4.53,4.53,0,0,0,1.77-.72,3.61,3.61,0,0,0,1.15-1.31l.71.22A4.14,4.14,0,0,1,70,13.71,5.61,5.61,0,0,1,67.9,14.58Zm-4.57-3.67c2.82-.64,4.24-.92,7.1-1.38a2.77,2.77,0,0,0-.85-1.3,3.39,3.39,0,0,0-1.45-.74,3.94,3.94,0,0,0-1.78,0,4.13,4.13,0,0,0-1.66.7,3.5,3.5,0,0,0-1.07,1.24A2.77,2.77,0,0,0,63.33,10.91Z"/><path class="cls-1" d="M79.39,13a4.67,4.67,0,0,1-2.18-.31,4,4,0,0,1-1.65-1.26l.21,1.71-.86.11c-.65-5-1-7.47-1.63-12.46l1-.12c.33,2.7.5,4.05.83,6.75a3.6,3.6,0,0,1,1.38-1.6A5.08,5.08,0,0,1,81,5.37a3.9,3.9,0,0,1,1.68,1.3,3.69,3.69,0,0,1,.69,2,3.8,3.8,0,0,1-.45,2.07,4.19,4.19,0,0,1-1.42,1.51A4.67,4.67,0,0,1,79.39,13Zm-.24-.67a3.83,3.83,0,0,0,1.77-.58,3.24,3.24,0,0,0,1.16-1.25,3.17,3.17,0,0,0,.35-1.72,3.12,3.12,0,0,0-.57-1.67A3.08,3.08,0,0,0,80.48,6a3.93,3.93,0,0,0-1.93-.26,4.14,4.14,0,0,0-1.87.61,3.15,3.15,0,0,0-1.16,1.3,3.11,3.11,0,0,0-.25,1.75A3,3,0,0,0,75.93,11a3.18,3.18,0,0,0,1.37,1A4,4,0,0,0,79.15,12.29Z"/><path class="cls-1" d="M94.39,12.58A4.53,4.53,0,0,1,92.27,12a4.11,4.11,0,0,1-1.49-1.44,3.81,3.81,0,0,1-.56-2,3.73,3.73,0,0,1,.59-2,4,4,0,0,1,1.61-1.39A5.11,5.11,0,0,1,97,5.27,3.68,3.68,0,0,1,98.42,6.8c.2-2.72.3-4.08.49-6.8l1,.07c-.4,5-.6,7.53-1,12.55L98,12.55l.12-1.73a3.91,3.91,0,0,1-1.58,1.35A4.59,4.59,0,0,1,94.39,12.58Zm.2-.68a4,4,0,0,0,1.84-.33,3.32,3.32,0,0,0,1.32-1.08,3.25,3.25,0,0,0,.58-1.66A3.17,3.17,0,0,0,98,7.09a3.09,3.09,0,0,0-1.22-1.24,4.09,4.09,0,0,0-1.89-.52A4,4,0,0,0,93,5.69a3.24,3.24,0,0,0-1.38,4.54,3.24,3.24,0,0,0,1.22,1.19A3.87,3.87,0,0,0,94.59,11.9Z"/><path class="cls-1" d="M106.39,13.7a5.42,5.42,0,0,1-2.26-.84,4.2,4.2,0,0,1-1.44-1.59,3.66,3.66,0,0,1,.14-3.58A3.9,3.9,0,0,1,104,6.53a4.66,4.66,0,0,1,1.58-.67,5.33,5.33,0,0,1,4,.77A4.09,4.09,0,0,1,111,8.23a3.54,3.54,0,0,1,.32,2l0,.13a1,1,0,0,0,0,.12c-3.2-.59-4.81-.82-8-1.19a3.06,3.06,0,0,0,.29,1.73,3.46,3.46,0,0,0,1.19,1.31,4.5,4.5,0,0,0,1.85.68,4.44,4.44,0,0,0,1.9-.1,3.53,3.53,0,0,0,1.52-.86l.6.45a4.12,4.12,0,0,1-1.84,1A5.5,5.5,0,0,1,106.39,13.7Zm-3.09-5c2.86.32,4.3.53,7.14,1a2.78,2.78,0,0,0-.36-1.5A3.5,3.5,0,0,0,109,7.08a4.35,4.35,0,0,0-3.47-.51,3.41,3.41,0,0,0-1.42.82A2.79,2.79,0,0,0,103.3,8.73Z"/><path class="cls-1" d="M116.16,15.32c-.87-3.29-1.37-4.93-2.46-8.19l1.07.21c.85,2.76,1.24,4.15,1.94,6.91,1.88-2.15,2.85-3.21,4.86-5.29l1.06.29c-2.46,2.42-3.65,3.66-5.92,6.2Z"/><path class="cls-1" d="M126.69,18.57a5.27,5.27,0,0,1-2.09-1.23,4.27,4.27,0,0,1-1.15-1.83,3.55,3.55,0,0,1,0-2.09,3.51,3.51,0,0,1,.79-1.41,3.8,3.8,0,0,1,1.33-.93,4.48,4.48,0,0,1,1.68-.37,5,5,0,0,1,1.82.28,5.11,5.11,0,0,1,2,1.22A4.15,4.15,0,0,1,132.2,14a3.45,3.45,0,0,1-.06,2.06l0,.12a.67.67,0,0,1-.06.12c-3.07-1.17-4.62-1.7-7.75-2.65a3,3,0,0,0,0,1.75,3.41,3.41,0,0,0,.94,1.51,4.39,4.39,0,0,0,1.71,1,4.56,4.56,0,0,0,1.9.25,3.5,3.5,0,0,0,1.66-.56l.52.55a4.3,4.3,0,0,1-2,.68A5.62,5.62,0,0,1,126.69,18.57Zm-2.18-5.45c2.79.84,4.17,1.31,6.9,2.33a2.73,2.73,0,0,0-.09-1.55,3.55,3.55,0,0,0-.9-1.37,4.31,4.31,0,0,0-3.35-1.13,3.3,3.3,0,0,0-1.54.54A2.84,2.84,0,0,0,124.51,13.12Z"/><path class="cls-1" d="M133.48,20.87c1.92-4.65,2.88-7,4.79-11.62l.9.37c-1.95,4.64-2.92,7-4.87,11.59Z"/><path class="cls-1" d="M141.27,24.68a5.71,5.71,0,0,1-1.92-1.5,4.3,4.3,0,0,1-.94-2,3.57,3.57,0,0,1,.29-2.14,3.33,3.33,0,0,1,1.45-1.62,4.19,4.19,0,0,1,2.2-.52,6.33,6.33,0,0,1,4.52,2.28,4.29,4.29,0,0,1,.91,2.08,3.45,3.45,0,0,1-.43,2.13,3.52,3.52,0,0,1-1.56,1.5,4.38,4.38,0,0,1-2.17.43A5.81,5.81,0,0,1,141.27,24.68Zm.32-.63a4.54,4.54,0,0,0,1.93.52,3.44,3.44,0,0,0,1.75-.39,2.91,2.91,0,0,0,1.24-1.24,2.81,2.81,0,0,0,.36-1.73,3.39,3.39,0,0,0-.71-1.69,4.73,4.73,0,0,0-1.64-1.31,4.62,4.62,0,0,0-2-.53,3.37,3.37,0,0,0-1.77.44,2.8,2.8,0,0,0-1.17,1.32,2.94,2.94,0,0,0-.26,1.74,3.48,3.48,0,0,0,.73,1.63A4.49,4.49,0,0,0,141.59,24.05Z"/><path class="cls-1" d="M146.29,31.49,152,21.78l.83.49c-.36.58-.53.87-.88,1.45a3.76,3.76,0,0,1,2.1-.38,5.05,5.05,0,0,1,2.25.82,5.15,5.15,0,0,1,1.72,1.76,4.14,4.14,0,0,1,.56,2.1,3.55,3.55,0,0,1-.68,2,3.72,3.72,0,0,1-1.65,1.33,4.14,4.14,0,0,1-2.1.28,5.2,5.2,0,0,1-3.73-2.42,4,4,0,0,1-.56-2L147,31.94Zm6-1.31a4.21,4.21,0,0,0,1.8.68,3.37,3.37,0,0,0,1.73-.24,3.1,3.1,0,0,0,1.35-1.12,3,3,0,0,0,.57-1.69,3.3,3.3,0,0,0-.46-1.72,4.36,4.36,0,0,0-1.43-1.44,4.25,4.25,0,0,0-1.89-.7,3.22,3.22,0,0,0-1.75.29,2.94,2.94,0,0,0-1.3,1.2,3.16,3.16,0,0,0-.47,1.71,3.34,3.34,0,0,0,.49,1.67A4.2,4.2,0,0,0,152.26,30.18Z"/><path class="cls-1" d="M161.5,37.7a5.76,5.76,0,0,1-1.62-1.94,4.44,4.44,0,0,1-.51-2.15,3.39,3.39,0,0,1,.69-2,3.27,3.27,0,0,1,1.23-1.05,3.94,3.94,0,0,1,1.6-.4,4.75,4.75,0,0,1,1.76.27,5.89,5.89,0,0,1,3.24,2.84,4.26,4.26,0,0,1,.46,2.14,3.49,3.49,0,0,1-.73,2l-.09.1-.09.09c-2.6-2.26-3.93-3.34-6.65-5.38a2.92,2.92,0,0,0-.6,1.65,3.49,3.49,0,0,0,.41,1.78,4.78,4.78,0,0,0,1.33,1.58,5,5,0,0,0,1.76.95,3.81,3.81,0,0,0,1.8.08c.13.29.2.43.33.71a4.27,4.27,0,0,1-2.18-.1A5.93,5.93,0,0,1,161.5,37.7Zm-.31-6c2.42,1.81,3.61,2.76,5.94,4.75a2.69,2.69,0,0,0,.41-1.5,3.54,3.54,0,0,0-.42-1.64,4.28,4.28,0,0,0-1.2-1.44,4.7,4.7,0,0,0-1.67-.87,3.6,3.6,0,0,0-1.69-.05A2.77,2.77,0,0,0,161.19,31.73Z"/><path class="cls-1" d="M167.35,42.42l5.05-5.52.73.68-.76.81a2.62,2.62,0,0,1,1.52,0,3.84,3.84,0,0,1,1.46.92,8.14,8.14,0,0,1,.54.63,3.13,3.13,0,0,1,.39.62l-.75.18a2.61,2.61,0,0,0-.33-.54,4.49,4.49,0,0,0-.44-.51,3,3,0,0,0-1.12-.69,2.71,2.71,0,0,0-1.2-.17,1.37,1.37,0,0,0-.91.42L168,43.05Z"/></g></g></svg>