<svg xmlns="http://www.w3.org/2000/svg" viewBox="0 0 207.7 208.89"><defs><style>.cls-1{fill:#4959a8;}</style></defs><g id="Layer_2" data-name="Layer 2"><g id="Layer_1-2" data-name="Layer 1"><path class="cls-1" d="M52.55,21.45a218.9,218.9,0,0,0-47,94.5A225,225,0,0,0,.05,170c.2,8.81,1.15,18.24,6.22,25.74a30.1,30.1,0,0,0,19.81,12.67c20.93,3.53,36.43-11.28,49.29-25.68,7.69-8.61-5-21.39-12.73-12.72-8,8.94-18.62,22.49-32.18,20.94C16.68,189.31,17.88,172.78,18,162.39A207.35,207.35,0,0,1,38.29,75.91a192.88,192.88,0,0,1,27-41.73c3.16-3.69,3.63-9.1,0-12.73-3.23-3.23-9.55-3.71-12.72,0Z"/><path class="cls-1" d="M82.19,67.9c5.85,23.27,12.73,49.73,1.27,72.46-5.2,10.32,10.33,19.44,15.55,9.09,13.89-27.59,7.71-57.79.54-86.34-2.83-11.22-20.19-6.47-17.36,4.79Z"/><path class="cls-1" d="M93.35,73.36c10.85-4.43,20.41-10.87,27.85-20,3.07-3.76,3.69-9,0-12.72-3.16-3.17-9.64-3.79-12.73,0-5.36,6.59-12,12.14-19.9,15.38-4.5,1.84-7.68,6-6.29,11.07,1.17,4.26,6.55,8.14,11.07,6.29Z"/><path class="cls-1" d="M105.49,107.79l12.3-8.46c3.88-2.66,6-8,3.23-12.32-2.48-3.85-8.16-6.08-12.31-3.22L96.4,92.25c-3.87,2.66-6,8-3.23,12.31,2.49,3.85,8.17,6.08,12.32,3.23Z"/><path class="cls-1" d="M125.64,13.67c24.28,49.13,26.3,107.41,6.66,158.43-1.74,4.53,1.93,9.87,6.29,11.07,5.08,1.39,9.32-1.73,11.07-6.29,21.39-55.57,17.84-119-8.48-172.3-5.13-10.38-20.66-1.27-15.54,9.09Z"/><path class="cls-1" d="M169.6,19.85a59.74,59.74,0,0,1-3.83,29.75c-3.67,9.26-12.69,16.14-14.66,26-2.49,12.4,7.11,21.61,14.74,30a244.69,244.69,0,0,0,26.51,25c3.77,3.06,9,3.69,12.72,0,3.17-3.16,3.8-9.65,0-12.73a242.65,242.65,0,0,1-24.66-23c-3.62-3.87-8-7.89-10.72-12.43-2-3.27-.1-5.39,2-8.22C184.82,56.74,190,36.71,187,15.06c-.67-4.82-6.82-7.45-11.07-6.28-5.19,1.42-7,6.23-6.29,11.07Z"/></g></g></svg>